<?xml version="1.0" encoding="UTF-8"?>
<svg width="125px" height="24px" viewBox="0 0 125 24" version="1.1" xmlns="http://www.w3.org/2000/svg" xmlns:xlink="http://www.w3.org/1999/xlink">
    <!-- Generator: Sketch 51.3 (57544) - http://www.bohemiancoding.com/sketch -->
    <title>tuneduc_white</title>
    <desc>Created with Sketch.</desc>
    <defs></defs>
    <g id="Page-1" stroke="none" stroke-width="1" fill="none" fill-rule="evenodd">
        <g id="tuneduc_white" fill-rule="nonzero">
            <g id="Group" fill="#474747">
                <path d="M2.43,16.62 L2.43,9 L0,9 L0,5.59 L2.43,5.59 L2.43,1.59 L6.32,1.59 L6.32,5.59 L9.32,5.59 L9.32,9 L6.32,9 L6.32,15.62 C6.32,16.53 6.81,17.23 7.66,17.23 C8.14633332,17.235688 8.61969921,17.0731893 9,16.77 L9.82,19.69 C8.89587175,20.3828456 7.75174028,20.7168467 6.6,20.63 C3.9,20.63 2.44,19.23 2.44,16.63" id="Shape"></path>
                <path d="M20.46,20.26 L20.46,18.41 C19.1349435,19.8515018 17.2577676,20.6591239 15.3,20.63 C12.08,20.63 10.56,18.87 10.56,16.01 L10.56,5.59 L14.42,5.59 L14.42,14.49 C14.42,16.49 15.48,17.19 17.12,17.19 C18.4288507,17.1681227 19.6571877,16.5539542 20.46,15.52 L20.46,5.59 L24.32,5.59 L24.32,20.26 L20.46,20.26 Z" id="Shape"></path>
                <path d="M30.24,20.26 L30.24,11.39 C30.24,9.39 29.18,8.66 27.54,8.66 C26.2154395,8.67486724 24.9763227,9.31668521 24.2,10.39 L24.2,20.26 L20.34,20.26 L20.34,5.59 L24.2,5.59 L24.2,7.5 C25.4977265,6.02525612 27.3757723,5.192193 29.34,5.22 C32.55,5.23 34.1,7 34.1,9.9 L34.1,20.26 L30.24,20.26 Z" id="Shape"></path>
                <path d="M39.79,9.56 C38.4219249,10.8518025 38.3075566,12.9896101 39.53,14.42 L44.64,9.31 C43.9660286,8.68936961 43.0701057,8.36700906 42.1552156,8.4159538 C41.2403255,8.46489854 40.3839091,8.88100563 39.78,9.57 M37.68,18.21 C36.194492,16.8085707 35.3475297,14.8600497 35.3361946,12.8178426 C35.3248595,10.7756355 36.1501401,8.81783286 37.62,7.4 C40.71,4.31 45.14,4.52 48.53,7.91 L49.13,8.51 L41.42,16.22 C43.0937046,17.4592759 45.4382679,17.2069852 46.81,15.64 C47.8095618,14.6110017 48.4240482,13.2690198 48.55,11.84 L51.55,12.4 C51.3213808,14.580961 50.3170913,16.6072835 48.72,18.11 C45.56,21.27 41.05,21.53 37.72,18.2" id="Shape"></path>
                <path d="M63.69,15.52 L63.69,10.32 C62.8989636,9.27179386 61.6631867,8.65390541 60.35,8.65 C58.16,8.65 56.64,10.38 56.64,12.93 C56.64,15.48 58.16,17.18 60.35,17.18 C61.6631867,17.1760946 62.8989636,16.5582061 63.69,15.51 L63.69,15.52 Z M63.69,20.25 L63.69,18.38 C62.6136556,19.7955816 60.9383091,20.6277073 59.16,20.63 C55.45,20.63 52.66,17.83 52.66,12.94 C52.66,8.05 55.43,5.22 59.16,5.22 C60.9401371,5.21448725 62.6187705,6.04824557 63.69,7.47 L63.69,0 L67.58,0 L67.58,20.26 L63.69,20.25 Z" id="Shape"></path>
                <path d="M79.09,20.26 L79.09,18.41 C77.7626121,19.8541261 75.8812332,20.661991 73.92,20.63 C70.7,20.63 69.18,18.87 69.18,16.01 L69.18,5.59 L73,5.59 L73,14.49 C73,16.49 74.06,17.19 75.7,17.19 C77.0088507,17.1681227 78.2371877,16.5539542 79.04,15.52 L79.04,5.59 L82.9,5.59 L82.9,20.26 L79.09,20.26 Z" id="Shape"></path>
                <path d="M84.35,12.91 C84.2779519,10.8334126 85.0775711,8.82131009 86.5553463,7.36062994 C88.0331215,5.8999498 90.0543915,5.12379559 92.13,5.22 C94.3805453,5.08887628 96.5508332,6.07673147 97.93,7.86 L95.41,10.23 C94.7219536,9.1998382 93.5478537,8.60142595 92.31,8.65 C91.1967377,8.62329378 90.1246558,9.07133211 89.3614456,9.88224293 C88.5982354,10.6931537 88.2159342,11.7903975 88.31,12.9 C88.2322117,14.0084871 88.6190416,15.0993772 89.3777832,15.9112307 C90.1365247,16.7230841 91.1987902,17.1827261 92.31,17.18 C93.5419555,17.2023618 94.7042095,16.6099871 95.41,15.6 L97.93,18 C96.5652806,19.8045023 94.3883208,20.8066545 92.13,20.67 C90.0498337,20.7636805 88.0253932,19.9825213 86.5473142,18.5158414 C85.0692352,17.0491614 84.2724266,15.0308292 84.35,12.95" id="Shape"></path>
            </g>
            <polygon id="Shape" fill="#D8183D" points="110.42 10.21 107 0.56 104.23 8.83 101.36 17.36 110.42 16.55"></polygon>
            <polygon id="Shape" fill="#D8183D" points="110.83 9.92 117.2 9.92 121.95 7.17 124.22 5.86 119.86 4.39 107.39 0.21"></polygon>
            <polygon id="Shape" fill="#D8183D" points="122.08 7.66 117.51 10.3 117.51 16.75 118.88 22.72 124.37 6.33"></polygon>
            <polygon id="Shape" fill="#D8183D" points="106.75 17.36 102.19 17.77 118.5 23.25 117.31 18.04 117.07 17.01 110.67 17.01"></polygon>
        </g>
    </g>
</svg>